<svg width="1053" height="664" viewBox="0 0 1053 664" fill="none" xmlns="http://www.w3.org/2000/svg">
<defs>
<clipPath id="clip0_2602_132">
<rect width="1053" height="664" fill="white"/>
</clipPath>
</defs>

<g clip-path="url(#clip0_2602_132)">
<rect y="-20" width="1053" height="684" fill="#D1DEEE"/>
<path d="M821 421.5C786.2 443.5 581.5 520.333 483.5 556C494.667 564.333 533.4 584.2 599 597C681 613 775 593.5 890.5 597C982.9 599.8 1092 566.833 1135 550C1103.33 522.5 1031.8 463.8 999 449C958 430.5 927 356.5 912 349C897 341.5 864.5 394 821 421.5Z" fill="#96B6DE"/>
<path d="M833 413C840.534 403.684 880.024 359.805 912.102 341.885C914.036 340.804 916.444 341.604 917.458 343.575C921.822 352.055 930.047 367.405 938.641 381.5C948.641 397.9 983.141 414.333 999.141 420.5L926.141 401C936.475 407.167 959.041 421.4 966.641 429C976.141 438.5 950.641 432.5 921.641 429C892.641 425.5 888.312 384.844 879.141 391C873.327 394.903 823.471 424.782 833 413Z" fill="#A8CBEA"/>
<path d="M140 346.368C116.8 373.568 32.3333 417.368 -7 435.868V552.368C7.16667 550.702 59.2 547.368 154 547.368C272.5 547.368 262.5 580.368 433 601.368C569.4 618.168 768.5 572.368 851 547.368C840 545.702 808.3 540.968 769.5 535.368C721 528.368 386 299.368 353 277.368C320 255.368 252.5 158.368 243.5 185.868C234.5 213.368 169 312.368 140 346.368Z" fill="#A8CBEA"/>
<path d="M189.5 497.5C88.3 494.7 0.666664 538.333 -30.5 560.5L-51.5 695L1095.5 759L1117.5 574.5C1081 553.833 986.4 512.7 900 513.5C792 514.5 783 566 615 567.5C447 569 316 501 189.5 497.5Z" fill="#FDFFFF"/>
<path d="M618.5 488.5L627.5 456.5L641.5 443L685.5 449L693.5 477L694.5 499L687.5 507.5C680.833 509.167 663.2 511.5 646 507.5C628.8 503.5 620.5 493.167 618.5 488.5Z" fill="white"/>
<path d="M138.5 346C158.13 328.4 214.662 231.53 243.5 186C243.5 183.333 246.5 178.8 258.5 182C273.5 186 274.5 202.5 298.5 221.5C317.7 236.7 369.167 282.167 392.5 303C370.667 293.833 328.6 278.2 335 289C343 302.5 355 327 327 337C299 347 278.5 286 274.5 313C270.5 340 281.5 359 254.5 367.5C227.5 376 237.5 331 228.5 303C219.5 275 193 346 170 367.5C147 389 110.829 370.81 138.5 346Z" fill="#DDE3F0"/>
<ellipse cx="653" cy="657" rx="73.5" ry="7" fill="#E5EEF4"/>
<circle cx="677" cy="423.5" r="11.5" fill="#50A7A9"/>
<path d="M604.5 509.5L618.5 507L689 519.5L699 523.5L726.5 632L698.5 658H608.5L587.5 636L579 584.5L604.5 509.5Z" fill="#F5FCFF"/>
<path d="M692.449 461.858C687.792 479.551 680.001 454.369 663.4 450C646.799 445.631 627.675 463.73 632.331 446.037C636.987 428.343 654.22 417.542 670.821 421.911C687.422 426.28 697.105 444.165 692.449 461.858Z" fill="#68C3C4"/>
<path d="M626.999 457.5C625.804 448.974 625.631 444.37 630.499 438C654.101 438.859 668.296 442.667 695.999 457.5C697.585 466.156 697.165 470.665 693.499 478C672.577 463.372 660.687 455.377 626.999 457.5Z" fill="#50A7A9"/>
<path d="M121.5 565.5L82 531L41.5 505L-30 517.5L-34.5 577C11.3632 576.383 44.3334 580.315 69.5 567.5C91.3577 573.456 102.466 571.808 121.5 565.5Z" fill="#D0E0F0"/>
<path d="M738.5 503L688.5 536L690 539.5L761.5 502L759 498L742.5 506L757 477.5L753 476L748.5 486L744 467.5L740 468.5L746 488.5L738.5 503Z" fill="#D44E26"/>
<path d="M583.5 478.5L577.5 456.5L581 458L585 467L588.5 458L591 460.5L585 471L587.5 484.5L605.5 514L603.5 520.5L592 503L586.5 501L590 498L573.5 470L576.5 468.5L583.5 478.5Z" fill="#D44E26"/>
<path d="M646 517.5L630.5 512.5C621.265 529.907 619.69 540.97 620.5 562L636 567.5C636.706 544.252 638.073 532.348 646 517.5Z" fill="#230C60"/>
<path d="M615.5 507.5L623 495.5C636.932 506.209 649.4 509.544 689 505.5L690 520.5C656.448 523.798 639.579 522.022 615.5 507.5Z" fill="#401B88"/>
<path d="M647.5 506C641.592 500.682 637.671 499.316 629.5 500C618.187 515.528 615.389 526.074 613.5 546.5L629 553C630.305 529.575 634.022 518.995 647.5 506Z" fill="#804FBA"/>
<path d="M634.5 494L637 492L640 493L639.5 496.5H636.5L634.5 494Z" fill="#404143"/>
<path d="M644.5 497.5L646.5 495L649.5 496L649 499.5L646.5 500L644.5 497.5Z" fill="#404143"/>
<path d="M655.5 500L654 496.5L658 495L659 498L657.5 500H655.5Z" fill="#404143"/>
<path d="M662 496.5V492H664.5L667 494.5L664 497.5L662 496.5Z" fill="#404143"/>
<path d="M121 560.5L81.5 526L41 500L-30.5 512.5L-35 572C10.8632 571.383 43.8334 575.315 69 562.5C90.8577 568.456 101.966 566.808 121 560.5Z" fill="#285718"/>
<path d="M102 529.5C84.0165 511.327 75.1144 500.34 64 477.5L34.5 470L-43.5 484.5L-27 533L5 522.5C5.63137 536.337 7.78331 544.255 13 558.5C24.841 548.149 30.2036 540.2 36.5 520.5C63.3703 534.274 77.5715 535.117 102 529.5Z" fill="#30681B"/>
<path d="M88.5 476.5C70.4377 467.563 62.367 459.824 51 442L16 427L-35 472L-20 504.5C-3.77684 500.432 5.61718 499.521 20 487C33.7249 494.206 42.9548 496.432 63 496C56.2477 491.367 53.5568 488.132 51 481C65.3493 483.8 73.5638 482.756 88.5 476.5Z" fill="#3A7A23"/>
<path d="M73 448C51.8963 426.734 41.0254 411.466 23 379.5L-19 403L-25.5 459L-1 440C-1.50658 452.127 0.0879784 458.398 5 469C17.2671 461.095 21.9737 454.836 26 440C44.3257 451.284 54.6251 451.313 73 448Z" fill="#3F8227"/>
<path d="M9.5 311C18.0472 349.229 61.5885 418.163 65.3528 419.488C65.4497 419.496 65.5 419.5 65.5 419.5C65.4609 419.513 65.4117 419.509 65.3528 419.488C63.5423 419.333 45.4667 417.644 35.5 411C29.5 419.5 24.5 424.5 23.5 427C17.3333 419.5 4.8 402.6 4 395C3.2 387.4 -6.66667 411.167 -11.5 424L-30 399C-13.0608 367.417 -3.7752 349.321 9.5 311Z" fill="#4B9730"/>
<path d="M857.5 649.5C914.097 604.301 940.583 577.342 980.5 527L1112 511L1157.5 603L1120.5 701L929 698C893.341 684.648 876.6 674.806 857.5 649.5Z" fill="#316A1D"/>
<path d="M910 528.5C962.567 492.471 981.583 469.602 1000.5 425L1099 430L1196 505L1126 575L1124.45 575.414C1070.39 589.8 1039.61 597.993 982 598C998.228 573.981 1007.06 560.783 1020.5 539.5C976.567 539.879 952.487 536.815 910 528.5Z" fill="#3A7B23"/>
<path d="M931 426C1018.38 374.331 1031.71 327.505 1059.5 246L1154 367L1082 517.5C1059.3 490.829 1051.72 472.286 1043.5 435.5C985.836 464.35 964.399 454.692 931 426Z" fill="#3F8227"/>
<path d="M648 484.5C648.8 482.9 647.667 480.833 647 480H637C634.5 480 628 481 625 481.5C622.6 481.9 619 480.667 617.5 480L624 485.5H632.5C637.3 485.5 643.167 486.5 645.5 487C646 486.833 647.2 486.1 648 484.5Z" fill="#E9803B"/>
<ellipse cx="666.851" cy="475.707" rx="1.5" ry="4.5" transform="rotate(11.2834 666.851 475.707)" fill="#404143"/>
<ellipse cx="637.851" cy="469.707" rx="1.5" ry="4.5" transform="rotate(11.2834 637.851 469.707)" fill="#404143"/>
<circle cx="431" cy="509" r="11" fill="white"/>
<circle cx="803" cy="424" r="11" fill="white"/>
<circle cx="1007" cy="483" r="11" fill="white"/>
<circle cx="944" cy="177" r="11" fill="white"/>
<circle cx="985" cy="320" r="11" fill="white"/>
<circle cx="933" cy="420" r="15" fill="white"/>
<circle cx="409" cy="280" r="11" fill="white"/>
<circle cx="540" cy="124" r="7" fill="white"/>
<circle cx="403" cy="132" r="11" fill="white"/>
<circle cx="234.5" cy="382.5" r="7.5" fill="white"/>
<circle cx="671.5" cy="312.5" r="7.5" fill="white"/>
<circle cx="717.5" cy="90.5" r="7.5" fill="white"/>
<circle cx="189.5" cy="169.5" r="7.5" fill="white"/>
<circle cx="261.5" cy="83.5" r="7.5" fill="white"/>
<circle cx="96.5" cy="111.5" r="7.5" fill="white"/>
<circle cx="62.5" cy="75.5" r="7.5" fill="white"/>
<circle cx="70.5" cy="322.5" r="7.5" fill="white"/>
<circle cx="156.5" cy="482.5" r="7.5" fill="white"/>
<circle cx="350" cy="505" r="11" fill="white" fill-opacity="0.7"/>
<circle cx="284" cy="375" r="15" fill="white" fill-opacity="0.7"/>
<circle cx="349.5" cy="401.5" r="11.5" fill="white" fill-opacity="0.7"/>
<circle cx="774.5" cy="281.5" r="11.5" fill="white" fill-opacity="0.7"/>
<circle cx="996.5" cy="146.5" r="11.5" fill="white" fill-opacity="0.7"/>
<circle cx="477.5" cy="331.5" r="11.5" fill="white" fill-opacity="0.7"/>
<circle cx="712" cy="257" r="13" fill="white" fill-opacity="0.7"/>
<circle cx="460" cy="286" r="18" fill="white" fill-opacity="0.36"/>
<circle cx="377" cy="151" r="18" fill="white" fill-opacity="0.36"/>
<circle cx="255.5" cy="442.5" r="7.5" fill="white" fill-opacity="0.36"/>
<circle cx="821.5" cy="272.5" r="7.5" fill="white" fill-opacity="0.36"/>
<circle cx="898.5" cy="169.5" r="7.5" fill="white" fill-opacity="0.36"/>
<circle cx="944" cy="233" r="16" fill="white" fill-opacity="0.36"/>
<circle cx="964" cy="91" r="16" fill="white" fill-opacity="0.36"/>
<circle cx="741" cy="101" r="16" fill="white" fill-opacity="0.36"/>
<circle cx="838" cy="123" r="9" fill="white" fill-opacity="0.36"/>
<circle cx="803" cy="217" r="9" fill="white" fill-opacity="0.36"/>
<circle cx="662" cy="119" r="9" fill="white" fill-opacity="0.36"/>
<circle cx="703" cy="153" r="9" fill="white" fill-opacity="0.36"/>
<circle cx="212.5" cy="150.5" r="15.5" fill="white" fill-opacity="0.36"/>
<circle cx="219.5" cy="90.5" r="15.5" fill="white" fill-opacity="0.36"/>
<circle cx="872" cy="485" r="9" fill="white" fill-opacity="0.36"/>
<circle cx="964" cy="545" r="9" fill="white" fill-opacity="0.36"/>
<circle cx="1038" cy="387" r="15" fill="white" fill-opacity="0.36"/>
<circle cx="769.5" cy="436.5" r="12.5" fill="white" fill-opacity="0.09"/>
<circle cx="601" cy="372" r="15" fill="white" fill-opacity="0.36"/>
<circle cx="555" cy="113" r="15" fill="white" fill-opacity="0.36"/>
<circle cx="646.5" cy="375.5" r="11.5" fill="white" fill-opacity="0.36"/>
<circle cx="581.5" cy="322.5" r="11.5" fill="white" fill-opacity="0.36"/>
<circle cx="556" cy="240" r="9" fill="white" fill-opacity="0.36"/>
<circle cx="573" cy="217" r="9" fill="white" fill-opacity="0.36"/>
<circle cx="498" cy="104" r="9" fill="white" fill-opacity="0.36"/>
<circle cx="113.5" cy="425.5" r="16.5" fill="white" fill-opacity="0.7"/>
<circle cx="114" cy="479" r="11" fill="white" fill-opacity="0.7"/>
<circle cx="71" cy="334" r="11" fill="white" fill-opacity="0.7"/>
<circle cx="175" cy="345" r="22" fill="white" fill-opacity="0.7"/>
<circle cx="125" cy="253" r="22" fill="white" fill-opacity="0.7"/>
<circle cx="124.5" cy="230.5" r="13.5" fill="white" fill-opacity="0.7"/>
<circle cx="48" cy="174" r="12" fill="white" fill-opacity="0.7"/>
<circle cx="386.5" cy="342.5" r="8.5" fill="white" fill-opacity="0.7"/>

<!-- Animated Snowflakes -->
<g id="snowflakes">
  <!-- Layer 1: Large, slow snowflakes -->
  <circle cx="150" cy="-20" r="3" fill="white" opacity="0.9">
    <animate attributeName="cy" from="-20" to="684" dur="15s" repeatCount="indefinite"/>
    <animate attributeName="opacity" values="0;0.9;0.9;0" dur="15s" repeatCount="indefinite"/>
  </circle>
  <circle cx="420" cy="-20" r="3.5" fill="white" opacity="0.9">
    <animate attributeName="cy" from="-20" to="684" dur="16s" repeatCount="indefinite"/>
    <animate attributeName="opacity" values="0;0.9;0.9;0" dur="16s" repeatCount="indefinite"/>
  </circle>
  <circle cx="680" cy="-20" r="3" fill="white" opacity="0.9">
    <animate attributeName="cy" from="-20" to="684" dur="14s" repeatCount="indefinite"/>
    <animate attributeName="opacity" values="0;0.9;0.9;0" dur="14s" repeatCount="indefinite"/>
  </circle>
  <circle cx="890" cy="-20" r="3.5" fill="white" opacity="0.9">
    <animate attributeName="cy" from="-20" to="684" dur="17s" repeatCount="indefinite"/>
    <animate attributeName="opacity" values="0;0.9;0.9;0" dur="17s" repeatCount="indefinite"/>
  </circle>

  <!-- Layer 2: Medium snowflakes -->
  <circle cx="200" cy="-20" r="2.5" fill="white" opacity="0.8">
    <animate attributeName="cy" from="-20" to="684" dur="12s" repeatCount="indefinite"/>
    <animate attributeName="opacity" values="0;0.8;0.8;0" dur="12s" repeatCount="indefinite"/>
  </circle>
  <circle cx="350" cy="-20" r="2" fill="white" opacity="0.8">
    <animate attributeName="cy" from="-20" to="684" dur="11s" repeatCount="indefinite"/>
    <animate attributeName="opacity" values="0;0.8;0.8;0" dur="11s" repeatCount="indefinite"/>
  </circle>
  <circle cx="520" cy="-20" r="2.5" fill="white" opacity="0.8">
    <animate attributeName="cy" from="-20" to="684" dur="13s" repeatCount="indefinite"/>
    <animate attributeName="opacity" values="0;0.8;0.8;0" dur="13s" repeatCount="indefinite"/>
  </circle>
  <circle cx="750" cy="-20" r="2" fill="white" opacity="0.8">
    <animate attributeName="cy" from="-20" to="684" dur="12.5s" repeatCount="indefinite"/>
    <animate attributeName="opacity" values="0;0.8;0.8;0" dur="12.5s" repeatCount="indefinite"/>
  </circle>
  <circle cx="950" cy="-20" r="2.5" fill="white" opacity="0.8">
    <animate attributeName="cy" from="-20" to="684" dur="11.5s" repeatCount="indefinite"/>
    <animate attributeName="opacity" values="0;0.8;0.8;0" dur="11.5s" repeatCount="indefinite"/>
  </circle>

  <!-- Layer 3: Small, faster snowflakes -->
  <circle cx="80" cy="-20" r="1.5" fill="white" opacity="0.7">
    <animate attributeName="cy" from="-20" to="684" dur="9s" repeatCount="indefinite"/>
    <animate attributeName="opacity" values="0;0.7;0.7;0" dur="9s" repeatCount="indefinite"/>
  </circle>
  <circle cx="280" cy="-20" r="1.5" fill="white" opacity="0.7">
    <animate attributeName="cy" from="-20" to="684" dur="8s" repeatCount="indefinite"/>
    <animate attributeName="opacity" values="0;0.7;0.7;0" dur="8s" repeatCount="indefinite"/>
  </circle>
  <circle cx="470" cy="-20" r="1.5" fill="white" opacity="0.7">
    <animate attributeName="cy" from="-20" to="684" dur="8.5s" repeatCount="indefinite"/>
    <animate attributeName="opacity" values="0;0.7;0.7;0" dur="8.5s" repeatCount="indefinite"/>
  </circle>
  <circle cx="620" cy="-20" r="1.5" fill="white" opacity="0.7">
    <animate attributeName="cy" from="-20" to="684" dur="9.5s" repeatCount="indefinite"/>
    <animate attributeName="opacity" values="0;0.7;0.7;0" dur="9.5s" repeatCount="indefinite"/>
  </circle>
  <circle cx="820" cy="-20" r="1.5" fill="white" opacity="0.7">
    <animate attributeName="cy" from="-20" to="684" dur="8.8s" repeatCount="indefinite"/>
    <animate attributeName="opacity" values="0;0.7;0.7;0" dur="8.8s" repeatCount="indefinite"/>
  </circle>
  <circle cx="1000" cy="-20" r="1.5" fill="white" opacity="0.7">
    <animate attributeName="cy" from="-20" to="684" dur="9.2s" repeatCount="indefinite"/>
    <animate attributeName="opacity" values="0;0.7;0.7;0" dur="9.2s" repeatCount="indefinite"/>
  </circle>

  <!-- Additional scattered snowflakes with delays -->
  <circle cx="120" cy="-20" r="2" fill="white" opacity="0.75">
    <animate attributeName="cy" from="-20" to="684" dur="10s" begin="3s" repeatCount="indefinite"/>
    <animate attributeName="opacity" values="0;0.75;0.75;0" dur="10s" begin="3s" repeatCount="indefinite"/>
  </circle>
  <circle cx="300" cy="-20" r="2.5" fill="white" opacity="0.75">
    <animate attributeName="cy" from="-20" to="684" dur="13s" begin="5s" repeatCount="indefinite"/>
    <animate attributeName="opacity" values="0;0.75;0.75;0" dur="13s" begin="5s" repeatCount="indefinite"/>
  </circle>
  <circle cx="580" cy="-20" r="2" fill="white" opacity="0.75">
    <animate attributeName="cy" from="-20" to="684" dur="11s" begin="2s" repeatCount="indefinite"/>
    <animate attributeName="opacity" values="0;0.75;0.75;0" dur="11s" begin="2s" repeatCount="indefinite"/>
  </circle>
  <circle cx="790" cy="-20" r="2.5" fill="white" opacity="0.75">
    <animate attributeName="cy" from="-20" to="684" dur="14s" begin="4s" repeatCount="indefinite"/>
    <animate attributeName="opacity" values="0;0.75;0.75;0" dur="14s" begin="4s" repeatCount="indefinite"/>
  </circle>

  <!-- More snowflakes - doubling the amount -->
  <circle cx="180" cy="-20" r="3" fill="white" opacity="0.9">
    <animate attributeName="cy" from="-20" to="684" dur="15.5s" begin="1s" repeatCount="indefinite"/>
    <animate attributeName="opacity" values="0;0.9;0.9;0" dur="15.5s" begin="1s" repeatCount="indefinite"/>
  </circle>
  <circle cx="240" cy="-20" r="2" fill="white" opacity="0.7">
    <animate attributeName="cy" from="-20" to="684" dur="9.8s" begin="4s" repeatCount="indefinite"/>
    <animate attributeName="opacity" values="0;0.7;0.7;0" dur="9.8s" begin="4s" repeatCount="indefinite"/>
  </circle>
  <circle cx="380" cy="-20" r="2.5" fill="white" opacity="0.8">
    <animate attributeName="cy" from="-20" to="684" dur="12.3s" begin="2.5s" repeatCount="indefinite"/>
    <animate attributeName="opacity" values="0;0.8;0.8;0" dur="12.3s" begin="2.5s" repeatCount="indefinite"/>
  </circle>
  <circle cx="450" cy="-20" r="1.5" fill="white" opacity="0.7">
    <animate attributeName="cy" from="-20" to="684" dur="8.7s" begin="6s" repeatCount="indefinite"/>
    <animate attributeName="opacity" values="0;0.7;0.7;0" dur="8.7s" begin="6s" repeatCount="indefinite"/>
  </circle>
  <circle cx="550" cy="-20" r="3.5" fill="white" opacity="0.9">
    <animate attributeName="cy" from="-20" to="684" dur="16.5s" begin="3.5s" repeatCount="indefinite"/>
    <animate attributeName="opacity" values="0;0.9;0.9;0" dur="16.5s" begin="3.5s" repeatCount="indefinite"/>
  </circle>
  <circle cx="640" cy="-20" r="2" fill="white" opacity="0.75">
    <animate attributeName="cy" from="-20" to="684" dur="10.5s" begin="5.5s" repeatCount="indefinite"/>
    <animate attributeName="opacity" values="0;0.75;0.75;0" dur="10.5s" begin="5.5s" repeatCount="indefinite"/>
  </circle>
  <circle cx="710" cy="-20" r="2.5" fill="white" opacity="0.8">
    <animate attributeName="cy" from="-20" to="684" dur="11.8s" begin="1.5s" repeatCount="indefinite"/>
    <animate attributeName="opacity" values="0;0.8;0.8;0" dur="11.8s" begin="1.5s" repeatCount="indefinite"/>
  </circle>
  <circle cx="780" cy="-20" r="1.5" fill="white" opacity="0.7">
    <animate attributeName="cy" from="-20" to="684" dur="9.3s" begin="4.5s" repeatCount="indefinite"/>
    <animate attributeName="opacity" values="0;0.7;0.7;0" dur="9.3s" begin="4.5s" repeatCount="indefinite"/>
  </circle>
  <circle cx="860" cy="-20" r="3" fill="white" opacity="0.9">
    <animate attributeName="cy" from="-20" to="684" dur="14.5s" begin="2.8s" repeatCount="indefinite"/>
    <animate attributeName="opacity" values="0;0.9;0.9;0" dur="14.5s" begin="2.8s" repeatCount="indefinite"/>
  </circle>
  <circle cx="920" cy="-20" r="2" fill="white" opacity="0.75">
    <animate attributeName="cy" from="-20" to="684" dur="10.2s" begin="6.5s" repeatCount="indefinite"/>
    <animate attributeName="opacity" values="0;0.75;0.75;0" dur="10.2s" begin="6.5s" repeatCount="indefinite"/>
  </circle>
  <circle cx="40" cy="-20" r="2.5" fill="white" opacity="0.8">
    <animate attributeName="cy" from="-20" to="684" dur="13.2s" begin="3.8s" repeatCount="indefinite"/>
    <animate attributeName="opacity" values="0;0.8;0.8;0" dur="13.2s" begin="3.8s" repeatCount="indefinite"/>
  </circle>
  <circle cx="330" cy="-20" r="1.5" fill="white" opacity="0.7">
    <animate attributeName="cy" from="-20" to="684" dur="8.3s" begin="5.2s" repeatCount="indefinite"/>
    <animate attributeName="opacity" values="0;0.7;0.7;0" dur="8.3s" begin="5.2s" repeatCount="indefinite"/>
  </circle>
  <circle cx="490" cy="-20" r="3" fill="white" opacity="0.9">
    <animate attributeName="cy" from="-20" to="684" dur="15.8s" begin="1.8s" repeatCount="indefinite"/>
    <animate attributeName="opacity" values="0;0.9;0.9;0" dur="15.8s" begin="1.8s" repeatCount="indefinite"/>
  </circle>
  <circle cx="600" cy="-20" r="2.5" fill="white" opacity="0.8">
    <animate attributeName="cy" from="-20" to="684" dur="12.8s" begin="4.2s" repeatCount="indefinite"/>
    <animate attributeName="opacity" values="0;0.8;0.8;0" dur="12.8s" begin="4.2s" repeatCount="indefinite"/>
  </circle>
  <circle cx="730" cy="-20" r="2" fill="white" opacity="0.75">
    <animate attributeName="cy" from="-20" to="684" dur="11.2s" begin="6.8s" repeatCount="indefinite"/>
    <animate attributeName="opacity" values="0;0.75;0.75;0" dur="11.2s" begin="6.8s" repeatCount="indefinite"/>
  </circle>
  <circle cx="840" cy="-20" r="1.5" fill="white" opacity="0.7">
    <animate attributeName="cy" from="-20" to="684" dur="9.6s" begin="2.2s" repeatCount="indefinite"/>
    <animate attributeName="opacity" values="0;0.7;0.7;0" dur="9.6s" begin="2.2s" repeatCount="indefinite"/>
  </circle>
  <circle cx="970" cy="-20" r="2.5" fill="white" opacity="0.8">
    <animate attributeName="cy" from="-20" to="684" dur="13.5s" begin="5.8s" repeatCount="indefinite"/>
    <animate attributeName="opacity" values="0;0.8;0.8;0" dur="13.5s" begin="5.8s" repeatCount="indefinite"/>
  </circle>
  <circle cx="110" cy="-20" r="1.5" fill="white" opacity="0.7">
    <animate attributeName="cy" from="-20" to="684" dur="8.9s" begin="3.2s" repeatCount="indefinite"/>
    <animate attributeName="opacity" values="0;0.7;0.7;0" dur="8.9s" begin="3.2s" repeatCount="indefinite"/>
  </circle>
  <circle cx="260" cy="-20" r="3" fill="white" opacity="0.9">
    <animate attributeName="cy" from="-20" to="684" dur="16.2s" begin="4.8s" repeatCount="indefinite"/>
    <animate attributeName="opacity" values="0;0.9;0.9;0" dur="16.2s" begin="4.8s" repeatCount="indefinite"/>
  </circle>
  <circle cx="410" cy="-20" r="2" fill="white" opacity="0.75">
    <animate attributeName="cy" from="-20" to="684" dur="10.8s" begin="1.2s" repeatCount="indefinite"/>
    <animate attributeName="opacity" values="0;0.75;0.75;0" dur="10.8s" begin="1.2s" repeatCount="indefinite"/>
  </circle>
</g>
</g>
</svg>